# xmcd
#
# Track frame offsets:
#	150
#	15365
#	29945
#	44850
#
# Disc length: 784 seconds
#
# Revision: 0
# Processed by: cddbd v1.5.2PL0 Copyright (c) Steve Scherf et al.
# Submitted via: audiograbber 1.83.01
#
DISCID=33030e04
DTITLE=Lasse Ja Laura - Maantiet‰ Riitt‰‰ [CDS)
DYEAR=1996
DGENRE=Pop
TTITLE0=Kulkuri
TTITLE1=Maantiet‰ Riitt‰‰ Mutkankin J‰lkeen
TTITLE2=Osa Sinua
TTITLE3=Valmis El‰m‰‰n
EXTD=TR.
EXTT0=
EXTT1=
EXTT2=
EXTT3=
PLAYORDER=
